<svg
      width="512"
      height="512"
      viewBox="0 0 512 512"
      fill="none"
      xmlns="http://www.w3.org/2000/svg"
    >
      <rect width="512" height="512" rx="26" fill="#1E40AF" />
      <circle cx="77" cy="77" r="15" fill="#FFFFFF" />
      <circle cx="154" cy="77" r="15" fill="#FFFFFF" />
      <circle cx="231" cy="77" r="15" fill="#FFFFFF" />
      
      <rect x="51" y="154" width="128" height="307" rx="15" fill="#60A5FA" />
      <rect x="77" y="205" width="77" height="10" rx="5" fill="#FFFFFF" />
      <rect x="77" y="256" width="77" height="10" rx="5" fill="#FFFFFF" />
      <rect x="77" y="307" width="77" height="10" rx="5" fill="#FFFFFF" />
      
      <rect x="192" y="154" width="128" height="307" rx="15" fill="#60A5FA" />
      <rect x="218" y="205" width="77" height="10" rx="5" fill="#FFFFFF" />
      <rect x="218" y="256" width="77" height="10" rx="5" fill="#FFFFFF" />
      <rect x="218" y="307" width="77" height="10" rx="5" fill="#FFFFFF" />
      
      <rect x="333" y="154" width="128" height="307" rx="15" fill="#60A5FA" />
      <rect x="359" y="205" width="77" height="10" rx="5" fill="#FFFFFF" />
      <rect x="359" y="256" width="77" height="10" rx="5" fill="#FFFFFF" />
      <rect x="359" y="307" width="77" height="10" rx="5" fill="#FFFFFF" />
    </svg>